<svg width="56" height="14" viewBox="0 0 56 14" fill="none" xmlns="http://www.w3.org/2000/svg">
<path d="M0 9.07031C0 8.94141 0.0175781 8.82422 0.0527344 8.71875C0.0878906 8.61328 0.09375 8.47852 0.0703125 8.31445C0.433594 7.54102 0.84375 6.82617 1.30078 6.16992C1.76953 5.50195 2.32617 4.91602 2.9707 4.41211C3.07617 4.33008 3.1582 4.24805 3.2168 4.16602C3.28711 4.07227 3.35156 3.98438 3.41016 3.90234C3.48047 3.82031 3.55664 3.75 3.63867 3.69141C3.7207 3.62109 3.82617 3.57422 3.95508 3.55078C4.24805 3.21094 4.59961 2.90039 5.00977 2.61914C5.41992 2.33789 5.84766 2.06836 6.29297 1.81055C6.73828 1.55273 7.18359 1.28906 7.62891 1.01953C8.08594 0.75 8.49609 0.457031 8.85938 0.140625C8.98828 0.222656 9.08789 0.251953 9.1582 0.228516C9.24023 0.193359 9.32227 0.1875 9.4043 0.210938C9.50977 0.433594 9.64453 0.591797 9.80859 0.685547C9.98438 0.767578 10.1602 0.855469 10.3359 0.949219C10.5234 1.03125 10.6934 1.13672 10.8457 1.26562C11.0098 1.38281 11.1328 1.54688 11.2148 1.75781C11.1328 1.75781 11.0918 1.78711 11.0918 1.8457C11.1035 1.9043 11.1211 1.96875 11.1445 2.03906C11.168 2.10938 11.1797 2.17383 11.1797 2.23242C11.1797 2.29102 11.127 2.32031 11.0215 2.32031C11.0215 2.40234 11.0625 2.44336 11.1445 2.44336C11.2266 2.44336 11.2676 2.48438 11.2676 2.56641C11.2676 2.63672 11.25 2.69531 11.2148 2.74219C11.1914 2.77734 11.1914 2.8418 11.2148 2.93555C10.9336 3.12305 10.6172 3.30469 10.2656 3.48047C9.92578 3.64453 9.5625 3.82031 9.17578 4.00781C8.80078 4.19531 8.41406 4.40039 8.01562 4.62305C7.62891 4.83398 7.24219 5.08008 6.85547 5.36133C6.46875 5.64258 6.07617 5.95312 5.67773 6.29297C5.29102 6.63281 4.91602 6.99609 4.55273 7.38281C4.18945 7.75781 3.84961 8.15039 3.5332 8.56055C3.2168 8.95898 2.94727 9.35156 2.72461 9.73828C2.74805 9.79688 2.77734 9.84961 2.8125 9.89648C2.85938 9.94336 2.89453 9.99609 2.91797 10.0547C3.36328 10.0781 3.7793 10.0781 4.16602 10.0547C4.55273 10.0195 4.93945 10.043 5.32617 10.125C5.37305 10.0898 5.40234 10.043 5.41406 9.98438C5.42578 9.92578 5.46094 9.88477 5.51953 9.86133C6.31641 9.7793 7.06055 9.65039 7.75195 9.47461C8.44336 9.28711 9.14648 9.09961 9.86133 8.91211C9.65039 8.83008 9.46289 8.76562 9.29883 8.71875C9.22852 8.64844 9.22852 8.58984 9.29883 8.54297C9.38086 8.48438 9.44531 8.42578 9.49219 8.36719C9.30469 8.26172 9.14648 8.12109 9.01758 7.94531C8.90039 7.76953 8.83008 7.54102 8.80664 7.25977C8.88867 7.18945 8.92969 7.10742 8.92969 7.01367C8.92969 6.91992 8.88867 6.84375 8.80664 6.78516C8.74805 6.76172 8.71289 6.76172 8.70117 6.78516C8.68945 6.80859 8.67773 6.83203 8.66602 6.85547C8.66602 6.87891 8.6543 6.90234 8.63086 6.92578C8.61914 6.94922 8.58984 6.94922 8.54297 6.92578C8.55469 6.79688 8.58398 6.69141 8.63086 6.60938C8.67773 6.52734 8.71289 6.42773 8.73633 6.31055L10.1953 5.34375C10.3477 5.46094 10.5352 5.58398 10.7578 5.71289C10.9805 5.8418 11.2148 5.9707 11.4609 6.09961C11.707 6.22852 11.959 6.36328 12.2168 6.50391C12.4746 6.63281 12.7148 6.76172 12.9375 6.89062C13.1484 6.98438 13.3301 7.10156 13.4824 7.24219C13.6348 7.37109 13.7812 7.51172 13.9219 7.66406C14.0625 7.80469 14.2031 7.94531 14.3438 8.08594C14.4844 8.22656 14.6543 8.34375 14.8535 8.4375C14.8301 8.625 14.8418 8.77734 14.8887 8.89453C14.9355 9.01172 14.9473 9.15234 14.9238 9.31641C14.7012 9.71484 14.4316 10.0547 14.1152 10.3359C13.7988 10.6055 13.4414 10.8398 13.043 11.0391C12.6562 11.2383 12.2402 11.4082 11.7949 11.5488C11.3496 11.6777 10.8926 11.8066 10.4238 11.9355C9.95508 12.0527 9.48047 12.1816 9 12.3223C8.53125 12.4512 8.06836 12.6035 7.61133 12.7793C7.41211 12.7793 7.24219 12.7852 7.10156 12.7969C6.96094 12.8086 6.82617 12.8262 6.69727 12.8496C6.56836 12.873 6.43945 12.8965 6.31055 12.9199C6.18164 12.9434 6.04102 12.9609 5.88867 12.9727C5.83008 12.9609 5.78906 12.9727 5.76562 13.0078C5.75391 13.043 5.73047 13.0723 5.69531 13.0957C5.46094 13.1309 5.25 13.1484 5.0625 13.1484C4.875 13.1484 4.7168 13.1484 4.58789 13.1484C4.42383 13.1484 4.25391 13.1719 4.07812 13.2188C3.90234 13.2656 3.73828 13.2832 3.58594 13.2715C2.53125 13.2246 1.70508 12.8496 1.10742 12.1465C0.509766 11.4434 0.181641 10.4766 0.123047 9.24609C0.134766 9.1875 0.123047 9.15234 0.0878906 9.14062C0.0527344 9.11719 0.0234375 9.09375 0 9.07031Z" fill="white"/>
<path d="M13.7461 11.5664L13.9746 11.3906L13.9922 11.0215C14.2852 10.3066 14.584 9.62109 14.8887 8.96484C15.2051 8.30859 15.5332 7.63477 15.873 6.94336C15.9785 6.7207 16.084 6.49805 16.1895 6.27539C16.3066 6.05273 16.418 5.82422 16.5234 5.58984C16.5117 5.54297 16.5059 5.49609 16.5059 5.44922C16.5059 5.39062 16.5176 5.32617 16.541 5.25586C16.7051 5.02148 16.834 4.81055 16.9277 4.62305C17.0332 4.43555 17.1328 4.24219 17.2266 4.04297C17.332 3.80859 17.4434 3.57422 17.5605 3.33984C17.6895 3.10547 17.8477 2.87695 18.0352 2.6543L18.1582 2.47852L18.3516 2.49609C18.3984 2.47266 18.4453 2.45508 18.4922 2.44336C18.5508 2.41992 18.6211 2.4082 18.7031 2.4082L19.0195 2.46094C19.4062 2.28516 19.7461 2.0332 20.0391 1.70508C20.3438 1.36523 20.6484 0.960938 20.9531 0.492188L21.1641 0.193359L21.4453 0.369141C21.5039 0.404297 21.5977 0.439453 21.7266 0.474609C21.8555 0.509766 21.9902 0.550781 22.1309 0.597656C22.377 0.65625 22.6172 0.726562 22.8516 0.808594C23.0859 0.878906 23.2676 0.978516 23.3965 1.10742L23.4844 1.26562C23.5078 1.39453 23.5254 1.51172 23.5371 1.61719C23.5605 1.72266 23.584 1.82812 23.6074 1.93359C23.6543 2.17969 23.6953 2.42578 23.7305 2.67188C23.7656 2.90625 23.7891 3.16992 23.8008 3.46289C23.8594 3.69727 23.9121 3.9375 23.959 4.18359C24.0176 4.41797 24.0703 4.65234 24.1172 4.88672C24.1758 5.22656 24.2402 5.55469 24.3105 5.87109C24.3809 6.17578 24.4746 6.46875 24.5918 6.75C24.709 6.75 24.7793 6.75586 24.8027 6.76758C24.9434 6.70898 25.1074 6.67383 25.2949 6.66211L25.5234 6.64453L25.5938 6.85547C25.6172 6.89062 25.6465 6.92578 25.6816 6.96094C25.7168 6.99609 25.7578 7.03125 25.8047 7.06641C25.9922 7.07812 26.127 7.11914 26.209 7.18945C26.3027 7.24805 26.3789 7.30664 26.4375 7.36523C26.4609 7.38867 26.4902 7.41797 26.5254 7.45312C26.5605 7.47656 26.5898 7.49414 26.6133 7.50586L26.9297 7.62891L26.7539 7.96289C26.625 8.20898 26.4258 8.44922 26.1562 8.68359C25.8984 8.91797 25.6055 9.11133 25.2773 9.26367C25.3008 9.3457 25.3125 9.42188 25.3125 9.49219C25.3242 9.5625 25.3418 9.64453 25.3652 9.73828C25.4121 9.97266 25.4473 10.2188 25.4707 10.4766C25.5059 10.7227 25.5059 10.9805 25.4707 11.25C25.3535 11.5547 25.2129 11.8301 25.0488 12.0762C24.8965 12.3105 24.709 12.5273 24.4863 12.7266C24.2754 12.9141 24.0352 13.0723 23.7656 13.2012C23.4961 13.3184 23.2148 13.3828 22.9219 13.3945C22.7578 13.3594 22.6348 13.3184 22.5527 13.2715C22.4824 13.2246 22.418 13.1777 22.3594 13.1309C22.2656 13.0605 22.1895 13.0137 22.1309 12.9902L21.9023 12.8848L21.9727 12.6211C22.0078 12.5273 22.002 12.4453 21.9551 12.375C21.9199 12.3047 21.8379 12.2109 21.709 12.0938C21.6621 12.0586 21.6211 12.0234 21.5859 11.9883C21.5508 11.9414 21.5098 11.8945 21.4629 11.8477L21.1113 11.4434L21.6914 11.2852C22.043 11.1914 22.2773 11.0742 22.3945 10.9336C22.5117 10.7812 22.5586 10.5176 22.5352 10.1426C22.2422 10.084 22.002 10.0781 21.8145 10.125C21.627 10.1602 21.4395 10.2012 21.252 10.248C20.9824 10.3184 20.7188 10.3828 20.4609 10.4414C20.2031 10.4883 19.9219 10.5117 19.6172 10.5117C19.418 10.5117 19.207 10.4941 18.9844 10.459L18.791 10.4414L18.7383 10.248C18.7383 10.2246 18.7207 10.2012 18.6855 10.1777C18.6621 10.1426 18.6387 10.1133 18.6152 10.0898C18.5566 10.0195 18.4863 9.92578 18.4043 9.80859C18.3223 9.69141 18.3047 9.54492 18.3516 9.36914C18.2695 9.24023 18.2227 9.10547 18.2109 8.96484C18.1641 9.05859 18.123 9.15234 18.0879 9.24609C18.0645 9.32812 18.041 9.41016 18.0176 9.49219L17.9473 9.7207L17.7188 9.75586C17.6953 9.7793 17.6719 9.81445 17.6484 9.86133C17.6367 9.9082 17.6367 9.94336 17.6484 9.9668L17.7188 10.1602L17.543 10.3184C17.5195 10.3535 17.4902 10.3828 17.4551 10.4062C17.4199 10.4297 17.3906 10.4531 17.3672 10.4766C17.3438 10.6055 17.3086 10.7285 17.2617 10.8457C17.2266 10.9629 17.1855 11.0801 17.1387 11.1973C17.0801 11.3848 17.0215 11.5664 16.9629 11.7422C16.916 11.918 16.8926 12.0938 16.8926 12.2695L16.8223 12.498C16.7637 12.5918 16.6875 12.6621 16.5938 12.709C16.5117 12.7559 16.4297 12.7969 16.3477 12.832C16.2305 12.8789 16.1484 12.9258 16.1016 12.9727L16.0488 13.2012L15.7852 13.2363C15.6328 13.2715 15.5215 13.2949 15.4512 13.3066C15.3926 13.3184 15.3223 13.3242 15.2402 13.3242L15.0117 13.3066C14.8711 13.166 14.7539 13.0605 14.6602 12.9902C14.5781 12.9082 14.4785 12.8379 14.3613 12.7793L14.2559 12.6387C14.209 12.5449 14.1797 12.4629 14.168 12.3926C14.1562 12.3105 14.1387 12.2285 14.1152 12.1465C14.0918 11.9941 14.0566 11.8887 14.0098 11.8301L13.7461 11.5664ZM19.3535 6.99609C19.1895 7.23047 19.0312 7.47656 18.8789 7.73438C18.9609 7.72266 19.0371 7.7168 19.1074 7.7168C19.1895 7.7168 19.2715 7.71094 19.3535 7.69922C19.7637 7.67578 20.1445 7.64648 20.4961 7.61133C20.8477 7.57617 21.2285 7.51758 21.6387 7.43555C21.5449 7.00195 21.4395 6.5625 21.3223 6.11719C21.2168 5.66016 21.0996 5.20312 20.9707 4.74609L20.8828 4.92188C20.5898 5.23828 20.3086 5.57812 20.0391 5.94141C19.7695 6.30469 19.5469 6.65039 19.3711 6.97852L19.3535 6.99609Z" fill="white"/>
<path d="M28.4238 13.4824C28.3066 13.4824 28.125 13.4648 27.8789 13.4297C27.6914 13.2305 27.5215 12.9609 27.3691 12.6211C27.2285 12.2695 27.1172 11.9004 27.0352 11.5137C26.9648 11.1152 26.9297 10.7227 26.9297 10.3359C26.9414 9.9375 27.0117 9.58594 27.1406 9.28125C27.1406 9.26953 27.1934 9.12891 27.2988 8.85938C27.416 8.58984 27.5625 8.25 27.7383 7.83984C27.9141 7.41797 28.1133 6.95508 28.3359 6.45117C28.5586 5.93555 28.7812 5.43164 29.0039 4.93945C29.2266 4.44727 29.4375 4.00195 29.6367 3.60352C29.8477 3.19336 30.0293 2.87695 30.1816 2.6543C30.2871 2.49023 30.3809 2.33203 30.4629 2.17969C30.5566 2.02734 30.6445 1.88672 30.7266 1.75781C30.8555 1.54688 30.9727 1.35352 31.0781 1.17773C31.1953 0.990234 31.3184 0.826172 31.4473 0.685547C31.5879 0.533203 31.7402 0.404297 31.9043 0.298828C32.0684 0.181641 32.2676 0.0820312 32.502 0C32.6426 0.0585938 32.7656 0.123047 32.8711 0.193359C32.9766 0.251953 33.0703 0.328125 33.1523 0.421875L33.2051 0.667969C33.2285 0.75 33.2637 0.808594 33.3105 0.84375C33.3691 0.867188 33.416 0.878906 33.4512 0.878906C33.6035 0.914062 33.7324 0.955078 33.8379 1.00195C33.9551 1.03711 34.0781 1.06055 34.207 1.07227C34.2539 1.14258 34.2949 1.21289 34.3301 1.2832C34.377 1.35352 34.4238 1.41797 34.4707 1.47656C34.7051 1.81641 34.8984 2.14453 35.0508 2.46094C35.2031 2.77734 35.2031 3.12305 35.0508 3.49805L35.0684 3.69141C35.127 3.77344 35.1562 3.84961 35.1562 3.91992C35.1562 3.99023 35.1445 4.08984 35.1211 4.21875C35.1094 4.3125 35.0977 4.41797 35.0859 4.53516C35.0859 4.64062 35.1035 4.75781 35.1387 4.88672L35.2617 5.02734C35.4492 5.12109 35.6309 5.16797 35.8066 5.16797C36.041 5.16797 36.252 5.11523 36.4395 5.00977C36.627 4.9043 36.8027 4.79883 36.9668 4.69336C37.0957 4.59961 37.2129 4.52344 37.3184 4.46484C37.4355 4.40625 37.5469 4.36523 37.6523 4.3418C37.8984 4.10742 38.1211 3.90234 38.3203 3.72656C38.5312 3.53906 38.748 3.35156 38.9707 3.16406C39.3926 2.82422 39.8027 2.46094 40.2012 2.07422C40.5996 1.67578 40.916 1.18359 41.1504 0.597656C41.2793 0.515625 41.4258 0.474609 41.5898 0.474609C41.7539 0.474609 41.918 0.509766 42.082 0.580078C42.2461 0.638672 42.4102 0.708984 42.5742 0.791016C42.6094 0.814453 42.6387 0.832031 42.6621 0.84375C42.6973 0.855469 42.7324 0.873047 42.7676 0.896484C42.7676 1.02539 42.8203 1.14258 42.9258 1.24805C42.9844 1.29492 43.0254 1.32422 43.0488 1.33594C43.0723 1.34766 43.0957 1.35938 43.1191 1.37109C43.2129 1.42969 43.2891 1.48242 43.3477 1.5293C43.418 1.57617 43.4707 1.64062 43.5059 1.72266C43.6113 2.03906 43.7871 2.28516 44.0332 2.46094C44.0098 2.58984 44.0156 2.71875 44.0508 2.84766C44.0859 2.96484 44.127 3.08203 44.1738 3.19922C44.1973 3.24609 44.2148 3.29297 44.2266 3.33984C44.2383 3.375 44.2559 3.42188 44.2793 3.48047L43.8926 3.44531L43.9453 3.83203C43.9805 4.03125 43.9629 4.25391 43.8926 4.5C43.834 4.74609 43.7637 4.93945 43.6816 5.08008C43.7051 5.43164 43.7168 5.71289 43.7168 5.92383C43.7168 6.12305 43.7051 6.31055 43.6816 6.48633C43.6582 6.66211 43.6172 6.83203 43.5586 6.99609C43.5117 7.14844 43.4473 7.3125 43.3652 7.48828C43.4121 8.37891 43.3066 9.19336 43.0488 9.93164C42.8027 10.6699 42.5332 11.3613 42.2402 12.0059C42.2051 12.0879 42.1699 12.1641 42.1348 12.2344C42.0996 12.3047 42.0703 12.375 42.0469 12.4453C41.918 12.4805 41.8008 12.5215 41.6953 12.5684C41.5898 12.6152 41.4902 12.668 41.3965 12.7266C41.2676 12.8086 41.1387 12.8789 41.0098 12.9375C40.8809 12.9844 40.7461 13.0078 40.6055 13.0078C40.043 12.5977 39.75 11.8887 39.7266 10.8809C39.7148 9.87305 39.9316 8.58984 40.377 7.03125C40.459 6.97266 40.4941 6.88477 40.4824 6.76758V6.57422L40.3066 6.55664C40.248 6.55664 40.1953 6.5625 40.1484 6.57422C40.1016 6.58594 40.0664 6.63867 40.043 6.73242C39.668 7.00195 39.2578 7.2832 38.8125 7.57617C38.3789 7.85742 37.9277 8.12109 37.459 8.36719C36.9902 8.60156 36.5098 8.80078 36.0176 8.96484C35.5371 9.11719 35.0684 9.19336 34.6113 9.19336C33.4395 9.19336 32.5547 8.5957 31.957 7.40039L31.7988 7.08398L31.623 7.36523C31.5879 7.42383 31.5234 7.54102 31.4297 7.7168C31.3477 7.88086 31.2598 8.07422 31.166 8.29688C31.084 8.51953 31.0078 8.74805 30.9375 8.98242C30.8789 9.2168 30.8613 9.42188 30.8848 9.59766C30.7441 9.72656 30.6035 9.87305 30.4629 10.0371C30.334 10.2012 30.2402 10.3887 30.1816 10.5996C30.1582 10.6582 30.1523 10.7168 30.1641 10.7754C30.1758 10.8223 30.1934 10.875 30.2168 10.9336C30.2051 11.0156 30.1816 11.0742 30.1465 11.1094C30.1113 11.1445 30.0703 11.1797 30.0234 11.2148C29.9648 11.2734 29.9062 11.3379 29.8477 11.4082C29.7891 11.4668 29.7363 11.5371 29.6895 11.6191C29.666 11.6895 29.6484 11.7656 29.6367 11.8477C29.625 11.918 29.6133 11.9824 29.6016 12.041C29.6016 12.1699 29.584 12.2578 29.5488 12.3047C29.4316 12.5508 29.3262 12.7559 29.2324 12.9199C29.1504 13.0723 29.0684 13.1895 28.9863 13.2715C28.9043 13.3535 28.8164 13.4062 28.7227 13.4297C28.6406 13.4648 28.541 13.4824 28.4238 13.4824Z" fill="white"/>
<path d="M44.3145 13.4473C44.1504 13.3418 44.0215 13.207 43.9277 13.043C43.8223 12.8789 43.7402 12.7031 43.6816 12.5156C43.6113 12.3281 43.5586 12.1348 43.5234 11.9355C43.4766 11.7246 43.4297 11.5254 43.3828 11.3379C43.3828 11.1738 43.418 11.0566 43.4883 10.9863C43.5586 10.9043 43.6348 10.8281 43.7168 10.7578C43.998 10.7461 44.25 10.7227 44.4727 10.6875C44.6953 10.6523 44.9121 10.6172 45.123 10.582C45.334 10.5469 45.5449 10.5176 45.7559 10.4941C45.9668 10.459 46.1953 10.4414 46.4414 10.4414C46.6172 10.0781 46.7812 9.73242 46.9336 9.4043C47.0859 9.06445 47.2324 8.74219 47.373 8.4375C47.4434 8.14453 47.5312 7.875 47.6367 7.62891C47.7539 7.37109 47.8652 7.13086 47.9707 6.9082C48.0762 6.67383 48.1699 6.44531 48.252 6.22266C48.334 5.98828 48.3867 5.74219 48.4102 5.48438C48.5508 5.07422 48.6738 4.69922 48.7793 4.35938C48.8965 4.00781 48.9844 3.5918 49.043 3.11133C48.5977 3.18164 48.2402 3.25195 47.9707 3.32227C47.7012 3.38086 47.5078 3.43945 47.3906 3.49805C47.1562 3.48633 46.9688 3.43945 46.8281 3.35742C46.6992 3.27539 46.5938 3.17578 46.5117 3.05859C46.4297 2.94141 46.3594 2.80664 46.3008 2.6543C46.2422 2.50195 46.1719 2.34375 46.0898 2.17969C46.1367 2.07422 46.1484 1.92188 46.125 1.72266C46.1016 1.51172 46.0312 1.35938 45.9141 1.26562C46.0078 1.24219 46.0781 1.16602 46.125 1.03711C46.1719 0.896484 46.1777 0.791016 46.1426 0.720703C46.3418 0.662109 46.5527 0.626953 46.7754 0.615234C46.998 0.591797 47.2148 0.574219 47.4258 0.5625C47.6484 0.539062 47.8594 0.515625 48.0586 0.492188C48.2578 0.457031 48.4277 0.392578 48.5684 0.298828C49.1777 0.275391 49.8105 0.251953 50.4668 0.228516C51.1348 0.205078 51.75 0.175781 52.3125 0.140625C52.5234 0.210938 52.7637 0.246094 53.0332 0.246094C53.3145 0.246094 53.5898 0.263672 53.8594 0.298828C54.1406 0.333984 54.3867 0.410156 54.5977 0.527344C54.8203 0.644531 54.9727 0.849609 55.0547 1.14258C55.2305 1.16602 55.3594 1.21289 55.4414 1.2832C55.5352 1.35352 55.5938 1.44141 55.6172 1.54688C55.6406 1.64062 55.6465 1.75195 55.6348 1.88086C55.6348 1.99805 55.6348 2.11523 55.6348 2.23242C55.4473 2.37305 55.207 2.49023 54.9141 2.58398C54.6328 2.66602 54.3223 2.73633 53.9824 2.79492C53.6426 2.8418 53.2852 2.87695 52.9102 2.90039C52.5469 2.91211 52.1895 2.92383 51.8379 2.93555C51.7793 3.32227 51.6738 3.7793 51.5215 4.30664C51.3809 4.82227 51.2344 5.33203 51.082 5.83594C50.9297 6.32812 50.7949 6.77344 50.6777 7.17188C50.5723 7.55859 50.5254 7.81055 50.5371 7.92773C50.4199 8.19727 50.3203 8.42578 50.2383 8.61328C50.168 8.80078 50.0977 8.97656 50.0273 9.14062C49.9688 9.30469 49.9043 9.46875 49.834 9.63281C49.7754 9.78516 49.6992 9.96094 49.6055 10.1602H50.8008C50.8242 10.2891 50.877 10.377 50.959 10.4238C51.041 10.4707 51.1289 10.5117 51.2227 10.5469C51.3164 10.582 51.3984 10.6289 51.4688 10.6875C51.5508 10.7344 51.5918 10.8164 51.5918 10.9336C51.8145 10.9922 51.9551 11.0801 52.0137 11.1973C52.0723 11.3145 52.084 11.4434 52.0488 11.584C52.0254 11.7129 51.9668 11.8477 51.873 11.9883C51.791 12.1289 51.709 12.252 51.627 12.3574C51.5215 12.334 51.4219 12.3633 51.3281 12.4453C51.2344 12.5156 51.1465 12.5977 51.0645 12.6914C50.7246 12.6445 50.3906 12.6387 50.0625 12.6738C49.7344 12.709 49.4297 12.7383 49.1484 12.7617C49.0898 12.7734 49.0664 12.8086 49.0781 12.8672C49.0898 12.9141 49.0781 12.9492 49.043 12.9727C48.6797 12.8555 48.3047 12.8086 47.918 12.832C47.543 12.8555 47.1562 12.9141 46.7578 13.0078C46.3711 13.0898 45.9727 13.1777 45.5625 13.2715C45.1523 13.377 44.7363 13.4355 44.3145 13.4473Z" fill="white"/>
</svg>
